<svg width="12" height="802" viewBox="0 0 12 802" fill="none" xmlns="http://www.w3.org/2000/svg">
<path d="M12 801L0 801M12 761L3.49691e-06 761M12 721L6.99382e-06 721M12 681L1.04907e-05 681M12 641L1.39876e-05 641M12 601L1.74846e-05 601M12 561L2.09815e-05 561M12 521L2.44784e-05 521M12 481L2.79753e-05 481M12 441L3.14722e-05 441M12 401L3.49691e-05 401M12 361L3.8466e-05 361M12 321L4.19629e-05 321M12 281L4.54598e-05 281M12 241L4.89568e-05 241M12.0001 201L5.24537e-05 201M12.0001 161L5.59506e-05 161M12.0001 121L5.94475e-05 121M12.0001 81L6.29444e-05 81M12.0001 41L6.64413e-05 41M12.0001 1L6.99382e-05 0.999999M12 793L6 793M12 753L6 753M12 713L6.00001 713M12 673L6.00001 673M12 633L6.00001 633M12 593L6.00002 593M12 553L6.00002 553M12 513L6.00003 513M12 473L6.00003 473M12 433L6.00003 433M12 393L6.00004 393M12 353L6.00004 353M12 313L6.00004 313M12 273L6.00005 273M12 233L6.00005 233M12.0001 193L6.00005 193M12.0001 153L6.00006 153M12.0001 113L6.00006 113M12.0001 73L6.00006 73M12.0001 33L6.00007 33M12 785L6 785M12 745L6 745M12 705L6.00001 705M12 665L6.00001 665M12 625L6.00002 625M12 585L6.00002 585M12 545L6.00002 545M12 505L6.00003 505M12 465L6.00003 465M12 425L6.00003 425M12 385L6.00004 385M12 345L6.00004 345M12 305L6.00004 305M12 265L6.00005 265M12.0001 225L6.00005 225M12.0001 185L6.00005 185M12.0001 145L6.00006 145M12.0001 105L6.00006 105M12.0001 65L6.00006 65M12.0001 25L6.00007 25M12 777L6 777M12 737L6.00001 737M12 697L6.00001 697M12 657L6.00001 657M12 617L6.00002 617M12 577L6.00002 577M12 537L6.00002 537M12 497L6.00003 497M12 457L6.00003 457M12 417L6.00003 417M12 377L6.00004 377M12 337L6.00004 337M12 297L6.00004 297M12 257L6.00005 257M12.0001 217L6.00005 217M12.0001 177L6.00005 177M12.0001 137L6.00006 137M12.0001 97L6.00006 97M12.0001 57L6.00007 57M12.0001 17L6.00007 17M12 769L6 769M12 729L6.00001 729M12 689L6.00001 689M12 649L6.00001 649M12 609L6.00002 609M12 569L6.00002 569M12 529L6.00002 529M12 489L6.00003 489M12 449L6.00003 449M12 409L6.00003 409M12 369L6.00004 369M12 329L6.00004 329M12 289L6.00004 289M12 249L6.00005 249M12.0001 209L6.00005 209M12.0001 169L6.00006 169M12.0001 129L6.00006 129M12.0001 89L6.00006 89M12.0001 49L6.00007 49M12.0001 9L6.00007 9" stroke="#97A0A9"/>
</svg>
