<svg width="12" height="802" viewBox="0 0 12 802" fill="none" xmlns="http://www.w3.org/2000/svg">
<path d="M0 1L12 1M0 41H12M0 81H12M0 121H12M0 161H12M0 201H12M0 241H12M0 281H12M0 321H12M0 361H12M0 401H12M0 441H12M0 481H12M0 521H12M0 561H12M0 601H12M0 641H12M0 681H12M0 721H12M0 761H12M0 801H12M0 9H6M0 49H6M0 89H6M0 129H6M0 169H6M0 209H6M0 249H6M0 289H6M0 329H6M0 369H6M0 409H6M0 449H6M0 489H6M0 529H6M0 569H6M0 609H6M0 649H6M0 689H6M0 729H6M0 769H6M0 17H6M0 57H6M0 97H6M0 137H6M0 177H6M0 217H6M0 257H6M0 297H6M0 337H6M0 377H6M0 417H6M0 457H6M0 497H6M0 537H6M0 577H6M0 617H6M0 657H6M0 697H6M0 737H6M0 777H6M0 25H6M0 65H6M0 105H6M0 145H6M0 185H6M0 225H6M0 265H6M0 305H6M0 345H6M0 385H6M0 425H6M0 465H6M0 505H6M0 545H6M0 585H6M0 625H6M0 665H6M0 705H6M0 745H6M0 785H6M0 33H6M0 73H6M0 113H6M0 153H6M0 193H6M0 233H6M0 273H6M0 313H6M0 353H6M0 393H6M0 433H6M0 473H6M0 513H6M0 553H6M0 593H6M0 633H6M0 673H6M0 713H6M0 753H6M0 793H6" stroke="#97A0A9"/>
</svg>
